<svg width="604" height="310" viewBox="0 0 604 310" fill="none" xmlns="http://www.w3.org/2000/svg">
<path d="M135.634 93.5C134.634 93.3667 133.268 93.1 131.534 92.7C129.801 92.3667 128.034 91.6667 126.234 90.6C124.434 89.5333 122.901 87.9 121.634 85.7C120.368 83.5667 119.734 80.7 119.734 77.1C119.734 72.9667 120.568 68.4333 122.234 63.5C123.968 58.5 126.068 53.3 128.534 47.9C131.001 42.5 133.368 37.1667 135.634 31.9C137.434 27.7 138.334 24.5 138.334 22.3C138.334 20.1 137.501 19 135.834 19C133.968 19 131.168 20.5 127.434 23.5C123.768 26.4333 119.501 30.9 114.634 36.9C113.368 38.5 111.734 40.7333 109.734 43.6C107.734 46.4 105.601 49.5333 103.334 53C101.068 56.4 98.8343 59.8667 96.6343 63.4C94.501 66.8667 92.601 70.0667 90.9343 73C89.3343 75.9333 88.1676 78.2667 87.4343 80C86.5676 82.0667 85.5676 83.4667 84.4343 84.2C83.301 85 82.2343 85.4 81.2343 85.4C80.3676 85.4 79.601 85.1667 78.9343 84.7C78.3343 84.2333 78.0343 83.6667 78.0343 83C78.0343 82.6 78.1343 82.2667 78.3343 82C78.7343 81.2 79.801 79.2667 81.5343 76.2C83.2676 73.1333 85.2343 69.0667 87.4343 64C89.6343 58.8667 91.7343 52.9333 93.7343 46.2C95.801 39.4 97.3343 31.9 98.3343 23.7C98.4676 22.7667 98.5343 21.7667 98.5343 20.7C98.5343 18.3667 98.1343 16.6667 97.3343 15.6C96.5343 14.4667 95.4676 13.9 94.1343 13.9C92.6676 13.9 91.001 14.5333 89.1343 15.8C87.2676 17.0667 85.3676 18.9 83.4343 21.3C80.101 25.5 77.1676 29.4 74.6343 33C72.101 36.5333 69.7676 40.0667 67.6343 43.6C65.5676 47.1333 63.501 50.9 61.4343 54.9C59.4343 58.9 57.301 63.4 55.0343 68.4C52.7676 73.3333 50.1676 79.0667 47.2343 85.6C46.7676 86.6667 45.9676 87.4333 44.8343 87.9C43.7676 88.3667 42.7676 88.6 41.8343 88.6C40.901 88.6 40.1343 88.4 39.5343 88C38.9343 87.6 38.7343 87.0333 38.9343 86.3C40.6676 83.6333 42.5343 80.2667 44.5343 76.2C46.5343 72.1333 48.5343 67.7 50.5343 62.9C52.601 58.0333 54.501 53.1333 56.2343 48.2C58.0343 43.2 59.5676 38.5 60.8343 34.1C62.101 29.6333 62.9676 25.7667 63.4343 22.5C63.5676 21.4333 63.6676 20.4333 63.7343 19.5C63.801 18.5667 63.8343 17.6667 63.8343 16.8C63.8343 11.6667 62.7343 8 60.5343 5.8C58.401 3.6 55.6343 2.5 52.2343 2.5C49.3676 2.5 46.2343 3.16666 42.8343 4.5C39.501 5.76666 36.101 7.53333 32.6343 9.79999C29.2343 12.0667 25.9676 14.7 22.8343 17.7C19.701 20.6333 16.9343 23.8 14.5343 27.2C12.1343 30.5333 10.301 33.9333 9.03431 37.4C8.16764 39.8667 7.50097 42.2333 7.03431 44.5C6.63431 46.7 6.43431 48.7667 6.43431 50.7C6.43431 54.4333 7.10098 57.6 8.43431 60.2C9.83431 62.8 11.6676 64.7667 13.9343 66.1C16.2676 67.4333 18.7676 68.1 21.4343 68.1C22.3676 68.1 23.401 68 24.5343 67.8C25.7343 67.5333 26.7343 67.2667 27.5343 67C29.4676 66.2667 31.3343 65.1333 33.1343 63.6C34.9343 62 36.5343 60.1667 37.9343 58.1C39.3343 56.0333 40.4343 53.9333 41.2343 51.8C42.0343 49.6667 42.4343 47.6667 42.4343 45.8C42.4343 43.8667 41.901 42.2667 40.8343 41C39.7676 39.7333 38.0676 39.1 35.7343 39.1C35.4676 39.1 35.1676 39.1333 34.8343 39.2C34.5676 39.2 34.2676 39.2 33.9343 39.2H33.6343C33.1676 39.2 32.7343 39.1333 32.3343 39C31.9343 38.8 31.7343 38.5667 31.7343 38.3C31.7343 38.0333 32.0676 37.7333 32.7343 37.4C33.4676 37.0667 34.7676 36.9 36.6343 36.9C39.6343 36.9 41.8676 37.8 43.3343 39.6C44.8676 41.3333 45.6343 43.5667 45.6343 46.3C45.6343 48.7667 44.9676 51.4333 43.6343 54.3C42.301 57.1667 40.301 59.9 37.6343 62.5C34.9676 65.1 31.601 67.2333 27.5343 68.9C25.1343 69.8333 22.801 70.3 20.5343 70.3C17.201 70.3 14.0343 69.4667 11.0343 67.8C8.03431 66.0667 5.60097 63.6333 3.73431 60.5C1.86764 57.3 0.934308 53.5333 0.934308 49.2C0.934308 47.2667 1.13431 45.2333 1.53431 43.1C2.00097 40.9 2.73431 38.6333 3.73431 36.3C5.93431 31.1667 8.90097 26.4333 12.6343 22.1C16.4343 17.7 20.6343 13.9 25.2343 10.7C29.8343 7.43333 34.501 4.9 39.2343 3.1C43.9676 1.3 48.3676 0.399996 52.4343 0.399996C57.3676 0.399996 61.4343 1.86666 64.6343 4.8C67.901 7.73333 69.5343 12.4667 69.5343 19C69.5343 19.4667 69.501 20.1 69.4343 20.9C69.4343 21.6333 69.401 22.2 69.3343 22.6C68.9343 26 68.2343 29.4 67.2343 32.8C66.301 36.2 65.2676 39.4667 64.1343 42.6C63.9343 43.1333 63.7676 43.7 63.6343 44.3C63.5676 44.8333 63.5343 45.2 63.5343 45.4C63.5343 45.7333 63.601 45.9 63.7343 45.9C64.001 45.9 64.5343 45.2 65.3343 43.8C66.8676 41 68.2343 38.5667 69.4343 36.5C70.701 34.3667 71.9343 32.4333 73.1343 30.7C74.3343 28.9667 75.6343 27.2 77.0343 25.4C78.4343 23.6 80.0343 21.6 81.8343 19.4C83.901 16.9333 86.2676 14.9667 88.9343 13.5C91.601 12.0333 94.1676 11.3 96.6343 11.3C98.8343 11.3 100.701 12.0333 102.234 13.5C103.768 14.9667 104.534 17.4667 104.534 21C104.534 21.4 104.534 21.7333 104.534 22C104.534 22.2667 104.501 22.6667 104.434 23.2C103.834 29.6 102.568 35.9 100.634 42.1C98.701 48.2333 96.701 54.4333 94.6343 60.7C96.701 57.5 99.501 53.4333 103.034 48.5C106.568 43.5667 110.434 38.4667 114.634 33.2C119.768 26.8 124.534 22 128.934 18.8C133.334 15.6 136.968 14 139.834 14C143.434 14 145.234 16.2 145.234 20.6C145.234 22.2667 144.901 24.2667 144.234 26.6C143.634 28.9333 142.668 31.4 141.334 34C139.868 36.9333 138.234 40.3333 136.434 44.2C134.701 48 133.034 52 131.434 56.2C129.834 60.4 128.501 64.5333 127.434 68.6C126.434 72.6 125.934 76.3 125.934 79.7C125.934 83.3667 126.768 86.3333 128.434 88.6C130.168 90.9333 133.134 92.0333 137.334 91.9H137.934C138.934 91.9 139.434 92.1 139.434 92.5C139.434 92.7667 139.101 93.0333 138.434 93.3C137.768 93.5667 136.834 93.6333 135.634 93.5ZM161.818 82.3C161.085 82.3667 160.251 82.2 159.318 81.8C158.385 81.4 157.551 80.6667 156.818 79.6C156.151 78.5333 155.818 77.0333 155.818 75.1C155.818 73.5 156.118 71.5667 156.718 69.3C155.918 70.5667 154.885 72.1333 153.618 74C152.351 75.8 150.985 77.4 149.518 78.8C148.251 80 147.051 80.8667 145.918 81.4C144.785 81.9333 143.751 82.2 142.818 82.2C141.085 82.2 139.685 81.4333 138.618 79.9C137.551 78.3 137.018 76.2333 137.018 73.7C137.018 71.0333 137.685 68 139.018 64.6C140.351 61.2 142.518 57.6667 145.518 54C147.451 51.6667 149.785 49.8 152.518 48.4C155.318 46.9333 158.051 46.2 160.718 46.2C162.251 46.2 163.718 46.4667 165.118 47C166.518 47.4667 167.751 48.2667 168.818 49.4C169.285 49.8667 169.518 50.4 169.518 51C169.518 51.4 169.351 51.7333 169.018 52C168.685 52.2667 168.251 52.3333 167.718 52.2C166.985 49.8667 165.418 48.7 163.018 48.7C161.885 48.7 160.585 49.0667 159.118 49.8C156.851 51 154.485 52.9667 152.018 55.7C149.618 58.4333 147.518 61.2667 145.718 64.2C145.451 64.6 145.018 65.3667 144.418 66.5C143.885 67.6333 143.351 68.9 142.818 70.3C142.285 71.7 141.918 73.0667 141.718 74.4C141.651 74.8 141.618 75.1 141.618 75.3C141.618 75.4333 141.618 75.6667 141.618 76C141.618 78.2 142.451 79.3 144.118 79.3C146.118 79.3 148.385 77.8333 150.918 74.9C152.651 72.7667 154.218 70.5333 155.618 68.2C157.018 65.8667 158.451 63.3667 159.918 60.7C160.918 58.9 161.851 57.4 162.718 56.2C163.585 55 164.818 54.4 166.418 54.4C167.151 54.4 167.885 54.5 168.618 54.7C169.351 54.9 170.118 54.9333 170.918 54.8C170.385 55.3333 169.651 56.3333 168.718 57.8C167.851 59.2667 166.918 60.9333 165.918 62.8C164.918 64.6667 164.018 66.5667 163.218 68.5C162.418 70.4333 161.851 72.1 161.518 73.5C161.451 73.9 161.351 74.4667 161.218 75.2C161.151 75.9333 161.118 76.4667 161.118 76.8C161.118 78.6667 161.651 79.6 162.718 79.6C163.785 79.6 164.918 78.9667 166.118 77.7C167.385 76.4333 168.618 74.8667 169.818 73C171.018 71.1333 172.118 69.2667 173.118 67.4C174.118 65.4667 174.918 63.9 175.518 62.7C175.785 62.0333 176.185 61.7 176.718 61.7C177.051 61.7 177.218 61.9333 177.218 62.4C177.218 62.6 177.118 62.9667 176.918 63.5C176.118 65.1667 175.151 67.0667 174.018 69.2C172.885 71.2667 171.651 73.3 170.318 75.3C168.985 77.2333 167.585 78.8667 166.118 80.2C164.718 81.4667 163.285 82.1667 161.818 82.3ZM189.164 82.1C187.898 82.1 186.631 81.6 185.364 80.6C184.098 79.5333 183.464 77.8333 183.464 75.5C183.464 73.7 183.898 71.6333 184.764 69.3C185.564 67.0333 186.631 64.8333 187.964 62.7C189.364 60.5667 190.364 58.8333 190.964 57.5C191.164 56.9667 191.264 56.5 191.264 56.1C191.264 54.9 190.498 54.0333 188.964 53.5C187.498 52.9667 185.564 52.6667 183.164 52.6L181.964 55.9C181.231 58.0333 180.198 60.5333 178.864 63.4C177.598 66.2667 176.164 69.0333 174.564 71.7C173.031 74.3667 171.431 76.5 169.764 78.1C169.631 78.2333 169.464 78.3 169.264 78.3C168.998 78.3 168.831 78.1333 168.764 77.8C168.631 77.4667 168.764 77.0667 169.164 76.6C171.764 73.1333 174.098 69.3 176.164 65.1C178.231 60.8333 179.964 56.5 181.364 52.1C182.831 47.7 183.898 43.6333 184.564 39.9C184.764 38.8333 185.131 38.0667 185.664 37.6C186.198 37.0667 186.764 36.8 187.364 36.8C188.231 36.8 189.031 37.2333 189.764 38.1C190.498 38.9 190.864 40.0667 190.864 41.6C190.864 41.8667 190.831 42.1667 190.764 42.5C190.764 42.8333 190.731 43.1667 190.664 43.5C190.398 44.9 189.598 46.2333 188.264 47.5C186.998 48.7 185.964 49.6 185.164 50.2C185.831 50.2667 186.531 50.3333 187.264 50.4C187.998 50.4 188.798 50.4 189.664 50.4C192.798 50.4 195.898 50.2 198.964 49.8C199.098 50.2 199.164 50.5 199.164 50.7C199.164 51.5667 198.898 52.6667 198.364 54C197.898 55.3333 197.398 56.5333 196.864 57.6C196.598 58.2 196.064 59.3 195.264 60.9C194.464 62.4333 193.598 64.2 192.664 66.2C191.731 68.1333 190.931 70.0667 190.264 72C189.664 73.8667 189.364 75.4667 189.364 76.8C189.364 78.5333 190.031 79.4 191.364 79.4C192.364 79.4 193.464 78.7667 194.664 77.5C195.864 76.1667 197.031 74.5667 198.164 72.7C199.364 70.7667 200.431 68.9 201.364 67.1C202.364 65.2333 203.131 63.7667 203.664 62.7C203.931 62.0333 204.298 61.7 204.764 61.7C205.031 61.7 205.164 61.9333 205.164 62.4C205.164 62.6667 205.064 63.0667 204.864 63.6C204.131 65.1333 203.264 66.8667 202.264 68.8C201.264 70.7333 200.131 72.6333 198.864 74.5C197.664 76.3667 196.331 78 194.864 79.4C193.464 80.7333 191.931 81.6 190.264 82C190.064 82.0667 189.698 82.1 189.164 82.1ZM191.729 113.9C188.262 113.9 185.795 113.2 184.329 111.8C182.862 110.467 182.129 108.867 182.129 107C182.129 106 182.262 105.133 182.529 104.4C182.795 103.667 183.195 102.733 183.729 101.6C184.662 99.6667 185.962 98 187.629 96.6C189.295 95.2 191.095 94.0667 193.029 93.2C196.495 91.6 200.429 90.3 204.829 89.3C209.295 88.3 213.562 87.2 217.629 86C218.895 83.8 220.062 81.3 221.129 78.5C222.195 75.6333 223.162 72.8667 224.029 70.2C224.895 67.4667 225.595 65.2333 226.129 63.5C225.329 64.9667 224.295 66.7667 223.029 68.9C221.829 70.9667 220.462 73 218.929 75C217.395 77 215.729 78.6667 213.929 80C212.195 81.3333 210.362 82 208.429 82C207.695 82 206.795 81.8333 205.729 81.5C204.729 81.1667 203.829 80.5667 203.029 79.7C202.295 78.7667 201.929 77.4 201.929 75.6C201.929 73.8667 202.329 72.2 203.129 70.6C203.995 68.9333 204.795 67.3333 205.529 65.8C205.329 65.8 205.095 65.7333 204.829 65.6C204.629 65.4667 204.529 65.2667 204.529 65C204.529 64.7333 204.595 64.4667 204.729 64.2C204.995 63.6667 205.295 63.1 205.629 62.5C205.962 61.9 206.262 61.2667 206.529 60.6C207.529 58.5333 208.529 56.5667 209.529 54.7C210.529 52.7667 211.395 51.0667 212.129 49.6C212.862 48.1333 214.129 47.4 215.929 47.4H222.129C221.662 47.8 221.062 48.2667 220.329 48.8C219.662 49.2667 219.029 50 218.429 51C216.629 54.0667 215.062 57.0333 213.729 59.9C212.395 62.7 210.962 65.7 209.429 68.9C208.695 70.4333 208.162 71.8333 207.829 73.1C207.495 74.3667 207.329 75.4667 207.329 76.4C207.329 78.6 208.062 79.7 209.529 79.7C211.129 79.7 213.062 78.4 215.329 75.8C217.195 73.6 219.062 71 220.929 68C222.862 64.9333 224.695 61.8 226.429 58.6C228.229 55.3333 229.795 52.3333 231.129 49.6C231.862 48.1333 233.162 47.4 235.029 47.4H240.529C238.595 48.7333 237.095 50.4667 236.029 52.6C235.029 54.7333 233.895 57.4667 232.629 60.8C231.229 64.4667 229.895 68.2667 228.629 72.2C227.429 76.0667 226.062 79.9667 224.529 83.9C226.729 83.1667 229.195 82.0333 231.929 80.5C234.729 78.9667 237.095 76.7667 239.029 73.9C240.562 71.6333 241.862 69.4667 242.929 67.4C244.062 65.2667 244.862 63.7333 245.329 62.8C245.595 62.1333 245.962 61.8 246.429 61.8C246.895 61.8 247.129 62.1 247.129 62.7C247.129 63.0333 247.029 63.4 246.829 63.8C245.095 67.2667 243.529 70.2 242.129 72.6C240.795 74.9333 239.295 76.9667 237.629 78.7C236.029 80.3667 234.062 81.8333 231.729 83.1C229.395 84.4333 226.429 85.7667 222.829 87.1C221.229 89.9667 219.395 92.9333 217.329 96C215.329 99.1333 213.029 102.033 210.429 104.7C207.895 107.433 205.062 109.633 201.929 111.3C198.862 113.033 195.462 113.9 191.729 113.9ZM189.329 111.9C191.529 111.9 193.795 111.233 196.129 109.9C198.462 108.567 200.729 106.867 202.929 104.8C205.129 102.8 207.129 100.733 208.929 98.6C210.795 96.5333 212.295 94.7 213.429 93.1C213.762 92.6333 214.129 92.0333 214.529 91.3C214.929 90.5667 215.329 89.8667 215.729 89.2C212.462 90.0667 208.862 91 204.929 92C201.062 93.0667 197.695 94.2333 194.829 95.5C191.629 96.8333 189.129 98.7333 187.329 101.2C185.462 103.667 184.529 105.867 184.529 107.8C184.529 109 184.929 109.967 185.729 110.7C186.462 111.5 187.662 111.9 189.329 111.9ZM268.855 82.3C268.122 82.3667 267.289 82.2 266.355 81.8C265.422 81.4 264.589 80.6667 263.855 79.6C263.189 78.5333 262.855 77.0333 262.855 75.1C262.855 73.5 263.155 71.5667 263.755 69.3C262.955 70.5667 261.922 72.1333 260.655 74C259.389 75.8 258.022 77.4 256.555 78.8C255.289 80 254.089 80.8667 252.955 81.4C251.822 81.9333 250.789 82.2 249.855 82.2C248.122 82.2 246.722 81.4333 245.655 79.9C244.589 78.3 244.055 76.2333 244.055 73.7C244.055 71.0333 244.722 68 246.055 64.6C247.389 61.2 249.555 57.6667 252.555 54C254.489 51.6667 256.822 49.8 259.555 48.4C262.355 46.9333 265.089 46.2 267.755 46.2C269.289 46.2 270.755 46.4667 272.155 47C273.555 47.4667 274.789 48.2667 275.855 49.4C276.322 49.8667 276.555 50.4 276.555 51C276.555 51.4 276.389 51.7333 276.055 52C275.722 52.2667 275.289 52.3333 274.755 52.2C274.022 49.8667 272.455 48.7 270.055 48.7C268.922 48.7 267.622 49.0667 266.155 49.8C263.889 51 261.522 52.9667 259.055 55.7C256.655 58.4333 254.555 61.2667 252.755 64.2C252.489 64.6 252.055 65.3667 251.455 66.5C250.922 67.6333 250.389 68.9 249.855 70.3C249.322 71.7 248.955 73.0667 248.755 74.4C248.689 74.8 248.655 75.1 248.655 75.3C248.655 75.4333 248.655 75.6667 248.655 76C248.655 78.2 249.489 79.3 251.155 79.3C253.155 79.3 255.422 77.8333 257.955 74.9C259.689 72.7667 261.255 70.5333 262.655 68.2C264.055 65.8667 265.489 63.3667 266.955 60.7C267.955 58.9 268.889 57.4 269.755 56.2C270.622 55 271.855 54.4 273.455 54.4C274.189 54.4 274.922 54.5 275.655 54.7C276.389 54.9 277.155 54.9333 277.955 54.8C277.422 55.3333 276.689 56.3333 275.755 57.8C274.889 59.2667 273.955 60.9333 272.955 62.8C271.955 64.6667 271.055 66.5667 270.255 68.5C269.455 70.4333 268.889 72.1 268.555 73.5C268.489 73.9 268.389 74.4667 268.255 75.2C268.189 75.9333 268.155 76.4667 268.155 76.8C268.155 78.6667 268.689 79.6 269.755 79.6C270.822 79.6 271.955 78.9667 273.155 77.7C274.422 76.4333 275.655 74.8667 276.855 73C278.055 71.1333 279.155 69.2667 280.155 67.4C281.155 65.4667 281.955 63.9 282.555 62.7C282.822 62.0333 283.222 61.7 283.755 61.7C284.089 61.7 284.255 61.9333 284.255 62.4C284.255 62.6 284.155 62.9667 283.955 63.5C283.155 65.1667 282.189 67.0667 281.055 69.2C279.922 71.2667 278.689 73.3 277.355 75.3C276.022 77.2333 274.622 78.8667 273.155 80.2C271.755 81.4667 270.322 82.1667 268.855 82.3ZM274.902 82.5C277.368 77.7667 279.702 73.0333 281.902 68.3C284.102 63.5 286.335 58.9667 288.602 54.7C289.935 52.3 291.035 50.6333 291.902 49.7C292.835 48.7 294.068 48.2 295.602 48.2C296.135 48.2 296.702 48.3 297.302 48.5C297.902 48.6333 298.502 48.7 299.102 48.7C299.502 48.7 299.802 48.6667 300.002 48.6C299.068 49.1333 297.868 50.4667 296.402 52.6C294.935 54.6667 293.435 57.0667 291.902 59.8C290.368 62.5333 289.002 65.1 287.802 67.5C289.068 65.9667 290.368 64.4333 291.702 62.9C293.102 61.3667 294.635 59.9 296.302 58.5C297.768 57.2333 299.302 55.8667 300.902 54.4C302.568 52.8667 304.202 51.5667 305.802 50.5C307.402 49.4333 308.802 48.9 310.002 48.9C310.468 48.9 310.768 48.9333 310.902 49C312.168 49.5333 312.802 50.4 312.802 51.6C312.802 52 312.635 52.6 312.302 53.4C311.435 55.6667 310.302 58 308.902 60.4C307.568 62.7333 306.302 65.1 305.102 67.5C306.102 66.3 307.335 64.8333 308.802 63.1C310.335 61.3667 311.868 59.8333 313.402 58.5C314.868 57.1667 316.735 55.7667 319.002 54.3C321.268 52.8333 323.502 51.5667 325.702 50.5C327.902 49.4333 329.668 48.9 331.002 48.9C331.468 48.9 331.802 48.9333 332.002 49C332.002 49 331.635 49.6667 330.902 51C330.168 52.2667 329.235 53.9667 328.102 56.1C327.035 58.1667 325.935 60.4 324.802 62.8C323.668 65.1333 322.635 67.4 321.702 69.6C320.835 71.7333 320.268 73.5333 320.002 75C319.802 75.8667 319.702 76.6667 319.702 77.4C319.702 78.4667 319.902 79.1667 320.302 79.5C320.702 79.8333 321.135 80 321.602 80C322.935 80 324.302 79.3 325.702 77.9C327.102 76.5 328.435 74.8333 329.702 72.9C331.035 70.9 332.202 68.9667 333.202 67.1C334.202 65.1667 334.935 63.7 335.402 62.7C335.802 61.9667 336.202 61.6 336.602 61.6C337.002 61.6 337.202 61.8667 337.202 62.4C337.202 62.7333 337.102 63.1 336.902 63.5C336.102 65.0333 335.135 66.8667 334.002 69C332.935 71.1333 331.702 73.2333 330.302 75.3C328.902 77.3 327.335 79 325.602 80.4C323.935 81.7333 322.135 82.4 320.202 82.4C318.802 82.4 317.368 81.9333 315.902 81C314.502 80.0667 313.802 78.3333 313.802 75.8C313.802 74.4 314.102 72.7 314.702 70.7C315.168 69.3667 315.868 67.8333 316.802 66.1C317.802 64.3667 319.002 62.3667 320.402 60.1C321.068 58.9667 321.402 58.0667 321.402 57.4C321.402 56.6 321.002 56.2 320.202 56.2C319.535 56.2 318.602 56.5333 317.402 57.2C316.268 57.8667 314.835 59.0333 313.102 60.7C312.035 61.7 310.768 63.1 309.302 64.9C307.902 66.6333 306.468 68.5333 305.002 70.6C303.535 72.6667 302.268 74.7 301.202 76.7C300.135 78.7 299.435 80.4667 299.102 82C298.102 82 297.302 81.6 296.702 80.8C296.102 79.9333 295.802 78.9333 295.802 77.8C295.802 77.6 295.802 77.4 295.802 77.2C295.802 77 295.835 76.7667 295.902 76.5C296.235 74.4333 296.768 72.5 297.502 70.7C298.235 68.9 299.068 67.0333 300.002 65.1C300.735 63.7 301.468 62.2 302.202 60.6C302.935 58.9333 303.302 57.6667 303.302 56.8C303.302 56.2667 303.102 56 302.702 56C302.235 56 301.468 56.3667 300.402 57.1C299.335 57.7667 297.868 58.9667 296.002 60.7C294.335 62.3 292.302 64.6 289.902 67.6C287.568 70.6 285.002 74.8667 282.202 80.4C281.802 81.1333 281.335 81.6 280.802 81.8C280.268 81.9333 279.435 82 278.302 82C277.568 82 276.968 82 276.502 82C275.968 82.0667 275.435 82.2333 274.902 82.5ZM376.637 85.9C375.104 85.9 373.537 85.8 371.937 85.6C367.737 85.0667 364.637 83.8333 362.637 81.9C360.704 79.9 359.737 77.7667 359.737 75.5C359.737 73.0333 360.804 70.8 362.937 68.8C365.137 66.8 368.237 65.8 372.237 65.8C374.904 65.8 377.804 66.3333 380.937 67.4C382.27 67.8 383.904 68.5 385.837 69.5C387.837 70.4333 389.804 71.4 391.737 72.4C393.67 73.4 395.17 74.2 396.237 74.8C399.17 71.9333 401.87 68.6333 404.337 64.9C406.87 61.1 409.27 57.0667 411.537 52.8C413.804 48.4667 416.104 44.1 418.437 39.7C420.77 35.3 423.204 31.0333 425.737 26.9C428.337 22.7 431.204 18.8667 434.337 15.4C430.87 13.2667 427.037 11.6333 422.837 10.5C418.704 9.3 414.437 8.7 410.037 8.7C408.37 8.7 406.67 8.8 404.937 9C403.27 9.2 401.57 9.46666 399.837 9.79999C393.637 11.1333 388.404 13.2667 384.137 16.2C379.87 19.0667 376.637 22.2333 374.437 25.7C372.304 29.1 371.237 32.3333 371.237 35.4C371.237 37.6667 371.837 39.6667 373.037 41.4C374.237 43.1333 376.07 44.3667 378.537 45.1C380.337 45.6333 381.904 45.9 383.237 45.9C385.437 45.9 387.337 45.4667 388.937 44.6C390.604 43.6667 392.004 42.5333 393.137 41.2C394.27 39.8667 395.104 38.5667 395.637 37.3C396.237 36.0333 396.57 35 396.637 34.2C396.637 33.7333 396.937 33.5 397.537 33.5C398.47 33.5 398.837 34.0667 398.637 35.2C398.304 37.8667 397.304 40.2 395.637 42.2C393.97 44.1333 391.97 45.6667 389.637 46.8C387.304 47.8667 384.904 48.4 382.437 48.4C380.837 48.4 379.17 48.1333 377.437 47.6C374.37 46.5333 371.77 44.7 369.637 42.1C367.57 39.4333 366.537 36.3 366.537 32.7C366.537 29.1667 367.704 25.6333 370.037 22.1C372.437 18.5 376.237 15.2667 381.437 12.4C386.637 9.53333 393.437 7.5 401.837 6.3C404.637 5.9 407.47 5.7 410.337 5.7C415.07 5.7 419.704 6.26666 424.237 7.39999C428.837 8.53333 433.17 10.1667 437.237 12.3L439.737 9.4C440.337 8.86666 441.17 8.2 442.237 7.39999C443.37 6.6 444.504 5.83333 445.637 5.09999C446.77 4.36666 447.604 3.9 448.137 3.69999C449.004 3.36666 449.704 3.2 450.237 3.2C450.637 3.2 450.837 3.3 450.837 3.5C450.837 3.96666 450.304 4.53333 449.237 5.2C448.57 5.66666 447.97 6.2 447.437 6.8C446.904 7.33333 446.504 7.76666 446.237 8.1C445.237 9.5 444.437 10.6333 443.837 11.5C443.304 12.3667 442.57 13.5 441.637 14.9C447.77 18.9667 452.77 24.2333 456.637 30.7C460.504 37.1 462.437 44.4333 462.437 52.7C462.437 54.4333 462.337 56.2 462.137 58C461.737 62.2667 460.57 66.1333 458.637 69.6C456.704 73.0667 454.17 76 451.037 78.4C447.97 80.8 444.537 82.6333 440.737 83.9C437.004 85.2333 433.07 85.9 428.937 85.9C427.404 85.9 425.87 85.8 424.337 85.6C417.804 84.8 412.404 83.7333 408.137 82.4C403.937 81.1333 400.237 79.8 397.037 78.4C390.97 83.4 384.17 85.9 376.637 85.9ZM427.237 82.9C432.57 82.9 437.27 81.7667 441.337 79.5C445.47 77.1667 448.804 74.1333 451.337 70.4C453.87 66.6667 455.37 62.6333 455.837 58.3C456.037 56.7 456.137 55.1 456.137 53.5C456.137 46.2333 454.57 39.6333 451.437 33.7C448.37 27.7 444.304 22.6667 439.237 18.6C436.304 23.2 433.27 28.0667 430.137 33.2C427.07 38.3333 423.97 43.4333 420.837 48.5C417.704 53.5 414.637 58.1333 411.637 62.4C408.704 66.6667 405.937 70.2 403.337 73C402.87 73.4 402.27 74 401.537 74.8C400.87 75.5333 400.17 76.1333 399.437 76.6C402.57 78 406.137 79.2667 410.137 80.4C414.137 81.5333 418.837 82.3333 424.237 82.8C424.837 82.8667 425.337 82.9 425.737 82.9C426.204 82.9 426.704 82.9 427.237 82.9ZM374.437 82.8C378.104 83 381.537 82.5667 384.737 81.5C387.937 80.3667 390.904 78.8 393.637 76.8C391.237 75.6667 388.804 74.5 386.337 73.3C383.87 72.0333 381.27 70.9 378.537 69.9C376.737 69.3 375.137 69 373.737 69C371.27 69 369.404 69.7 368.137 71.1C366.87 72.4333 366.237 73.9333 366.237 75.6C366.237 77.4 366.937 79.0333 368.337 80.5C369.737 81.9 371.77 82.6667 374.437 82.8ZM490.38 82.3C489.647 82.3667 488.813 82.2 487.88 81.8C486.947 81.4 486.113 80.6667 485.38 79.6C484.713 78.5333 484.38 77.0333 484.38 75.1C484.38 73.5 484.68 71.5667 485.28 69.3C484.48 70.5667 483.447 72.1333 482.18 74C480.913 75.8 479.547 77.4 478.08 78.8C476.813 80 475.613 80.8667 474.48 81.4C473.347 81.9333 472.313 82.2 471.38 82.2C469.647 82.2 468.247 81.4333 467.18 79.9C466.113 78.3 465.58 76.2333 465.58 73.7C465.58 71.0333 466.247 68 467.58 64.6C468.913 61.2 471.08 57.6667 474.08 54C476.013 51.6667 478.347 49.8 481.08 48.4C483.88 46.9333 486.613 46.2 489.28 46.2C490.813 46.2 492.28 46.4667 493.68 47C495.08 47.4667 496.313 48.2667 497.38 49.4C497.847 49.8667 498.08 50.4 498.08 51C498.08 51.4 497.913 51.7333 497.58 52C497.247 52.2667 496.813 52.3333 496.28 52.2C495.547 49.8667 493.98 48.7 491.58 48.7C490.447 48.7 489.147 49.0667 487.68 49.8C485.413 51 483.047 52.9667 480.58 55.7C478.18 58.4333 476.08 61.2667 474.28 64.2C474.013 64.6 473.58 65.3667 472.98 66.5C472.447 67.6333 471.913 68.9 471.38 70.3C470.847 71.7 470.48 73.0667 470.28 74.4C470.213 74.8 470.18 75.1 470.18 75.3C470.18 75.4333 470.18 75.6667 470.18 76C470.18 78.2 471.013 79.3 472.68 79.3C474.68 79.3 476.947 77.8333 479.48 74.9C481.213 72.7667 482.78 70.5333 484.18 68.2C485.58 65.8667 487.013 63.3667 488.48 60.7C489.48 58.9 490.413 57.4 491.28 56.2C492.147 55 493.38 54.4 494.98 54.4C495.713 54.4 496.447 54.5 497.18 54.7C497.913 54.9 498.68 54.9333 499.48 54.8C498.947 55.3333 498.213 56.3333 497.28 57.8C496.413 59.2667 495.48 60.9333 494.48 62.8C493.48 64.6667 492.58 66.5667 491.78 68.5C490.98 70.4333 490.413 72.1 490.08 73.5C490.013 73.9 489.913 74.4667 489.78 75.2C489.713 75.9333 489.68 76.4667 489.68 76.8C489.68 78.6667 490.213 79.6 491.28 79.6C492.347 79.6 493.48 78.9667 494.68 77.7C495.947 76.4333 497.18 74.8667 498.38 73C499.58 71.1333 500.68 69.2667 501.68 67.4C502.68 65.4667 503.48 63.9 504.08 62.7C504.347 62.0333 504.747 61.7 505.28 61.7C505.613 61.7 505.78 61.9333 505.78 62.4C505.78 62.6 505.68 62.9667 505.48 63.5C504.68 65.1667 503.713 67.0667 502.58 69.2C501.447 71.2667 500.213 73.3 498.88 75.3C497.547 77.2333 496.147 78.8667 494.68 80.2C493.28 81.4667 491.847 82.1667 490.38 82.3ZM509.426 82.7C507.36 82.7 505.926 82.1667 505.126 81.1C504.326 80.0333 503.926 78.6667 503.926 77C503.926 75.2667 504.226 73.3 504.826 71.1C505.493 68.9 506.193 66.7333 506.926 64.6C506.46 65.2667 505.993 65.6 505.526 65.6C505.26 65.6 505.06 65.4667 504.926 65.2C504.793 64.9333 504.826 64.6333 505.026 64.3C505.36 63.7 505.693 63.1333 506.026 62.6C506.36 62 506.66 61.4 506.926 60.8C507.46 59.6667 507.893 58.3333 508.226 56.8C508.626 55.2 508.826 53.7333 508.826 52.4C508.826 51.3333 508.693 50.4333 508.426 49.7C508.16 48.9667 507.76 48.5333 507.226 48.4C507.226 48.4 507.56 48.3333 508.226 48.2C508.96 48.0667 509.726 47.9333 510.526 47.8C511.326 47.6667 511.86 47.6 512.126 47.6C512.526 47.5333 512.893 47.5 513.226 47.5C513.56 47.4333 513.86 47.4 514.126 47.4C514.793 47.4 515.226 47.6667 515.426 48.2C515.693 48.7333 515.793 49.9 515.726 51.7C515.66 53.3667 515.326 55.4 514.726 57.8C514.126 60.1333 513.493 62.1667 512.826 63.9C511.96 66.1667 511.16 68.4667 510.426 70.8C509.693 73.1333 509.326 75.0667 509.326 76.6C509.326 77.9333 509.693 78.8 510.426 79.2C510.96 79.4 511.426 79.5 511.826 79.5C513.36 79.5 514.86 78.7333 516.326 77.2C517.86 75.6667 519.326 73.6333 520.726 71.1C522.126 68.5 523.426 65.7333 524.626 62.8C524.16 61.8667 523.826 60.8333 523.626 59.7C523.426 58.5667 523.326 57.4667 523.326 56.4C523.326 55.1333 523.493 53.9333 523.826 52.8C524.626 50.1333 525.726 48.2333 527.126 47.1C528.593 45.9 529.826 45.3 530.826 45.3C532.093 45.3 532.726 45.8667 532.726 47C532.726 47.2667 532.626 47.6667 532.426 48.2C532.293 48.3333 532.226 48.5333 532.226 48.8C531.76 50.2 531.06 52.2333 530.126 54.9C529.26 57.5667 528.16 60.5 526.826 63.7C525.56 66.8333 524.026 69.8667 522.226 72.8C520.493 75.6667 518.56 78.0333 516.426 79.9C514.293 81.7667 511.96 82.7 509.426 82.7ZM545.284 41.4C544.284 41.4 543.45 41.0667 542.784 40.4C542.184 39.6667 541.884 38.8 541.884 37.8C541.884 36.5333 542.384 35.4333 543.384 34.5C544.384 33.5667 545.484 33.1 546.684 33.1C547.75 33.1 548.617 33.4333 549.284 34.1C549.95 34.7667 550.284 35.5667 550.284 36.5C550.284 37.7667 549.784 38.9 548.784 39.9C547.784 40.9 546.617 41.4 545.284 41.4ZM537.184 82C534.717 82 532.984 81.3 531.984 79.9C530.984 78.4333 530.484 76.7667 530.484 74.9C530.484 73.9 530.584 72.9 530.784 71.9C531.05 70.8333 531.35 69.8667 531.684 69L538.384 51.9C538.584 51.3667 538.684 50.9 538.684 50.5C538.684 49.8333 538.517 49.2667 538.184 48.8C537.85 48.2667 537.617 47.9 537.484 47.7L542.984 47.5C543.984 47.4333 544.684 47.5667 545.084 47.9C545.55 48.1667 545.784 48.5 545.784 48.9C545.784 49.3 545.55 50.0333 545.084 51.1L536.784 70.6C536.784 70.6 536.584 71.0333 536.184 71.9C535.85 72.7 535.65 73.2333 535.584 73.5C535.384 74.5 535.25 75.1333 535.184 75.4C535.117 75.6667 535.084 75.8333 535.084 75.9C535.084 75.9667 535.084 76.2333 535.084 76.7C535.084 77.5667 535.284 78.3 535.684 78.9C536.15 79.5 536.917 79.8 537.984 79.8C538.65 79.8 539.417 79.6 540.284 79.2C541.15 78.8 541.784 78.4 542.184 78C543.85 76.2667 545.484 74 547.084 71.2C548.75 68.3333 550.284 65.5 551.684 62.7C551.95 62.0333 552.284 61.7 552.684 61.7C553.017 61.7 553.184 61.9333 553.184 62.4C553.184 62.6667 553.084 63.0667 552.884 63.6C552.217 65 551.384 66.7333 550.384 68.8C549.384 70.8667 548.184 72.9333 546.784 75C545.45 77 543.984 78.6667 542.384 80C540.784 81.3333 539.05 82 537.184 82ZM575.652 82C573.852 82 572.352 81.1 571.152 79.3C570.818 78.7667 570.518 78.0667 570.252 77.2C569.985 76.3333 569.852 75.3667 569.852 74.3C569.852 73.7 569.885 73.1 569.952 72.5C570.018 71.8333 570.152 71.1667 570.352 70.5C569.418 71.9667 568.318 73.6 567.052 75.4C565.852 77.1333 564.452 78.6667 562.852 80C561.318 81.2667 559.585 81.9 557.652 81.9C556.985 81.9 556.285 81.8 555.552 81.6C553.752 81.0667 552.452 80.1333 551.652 78.8C550.918 77.4667 550.552 75.8667 550.552 74C550.552 71.9333 550.952 69.6667 551.752 67.2C552.618 64.7333 553.685 62.3333 554.952 60C556.285 57.6667 557.652 55.6667 559.052 54C561.052 51.6667 563.352 49.8 565.952 48.4C568.552 47 571.185 46.3 573.852 46.3C576.252 46.3 578.518 46.9333 580.652 48.2C581.652 46.3333 582.718 44.2667 583.852 42C584.985 39.6667 586.118 37.3667 587.252 35.1C588.385 32.8333 589.385 30.7667 590.252 28.9C591.118 26.9667 591.785 25.5 592.252 24.5C593.252 22.1667 594.185 20.7 595.052 20.1C595.985 19.4333 597.085 19.1 598.352 19.1C599.085 19.1 599.885 19.2 600.752 19.4C601.685 19.5333 602.585 19.5667 603.452 19.5C603.052 19.9 602.218 21.0667 600.952 23C599.752 24.8667 598.318 27.2667 596.652 30.2C594.985 33.1333 593.185 36.3667 591.252 39.9C589.385 43.3667 587.518 46.9 585.652 50.5C583.852 54.0333 582.152 57.4 580.552 60.6C579.018 63.7333 577.785 66.4333 576.852 68.7C576.585 69.2333 576.185 70.3333 575.652 72C575.185 73.6 574.952 75 574.952 76.2C574.952 77.0667 575.152 77.8333 575.552 78.5C575.952 79.1 576.618 79.4 577.552 79.4C578.818 79.4 580.085 78.7667 581.352 77.5C582.685 76.1667 583.952 74.5667 585.152 72.7C586.352 70.7667 587.418 68.9 588.352 67.1C589.285 65.2333 589.985 63.7667 590.452 62.7C590.785 61.9667 591.185 61.6 591.652 61.6C592.052 61.6 592.252 61.9 592.252 62.5C592.252 62.5667 592.252 62.7 592.252 62.9C592.252 63.0333 592.185 63.2 592.052 63.4C591.452 64.8 590.618 66.5333 589.552 68.6C588.552 70.6667 587.352 72.7333 585.952 74.8C584.552 76.8667 582.985 78.6 581.252 80C579.518 81.3333 577.652 82 575.652 82ZM558.352 79C559.285 79 560.452 78.5 561.852 77.5C563.252 76.4333 564.752 74.7667 566.352 72.5C568.218 69.8333 570.352 66.5 572.752 62.5C575.152 58.5 577.518 54.2667 579.852 49.8C578.985 49 577.985 48.6 576.852 48.6C574.985 48.6 572.885 49.4667 570.552 51.2C568.285 52.9333 566.052 55.1333 563.852 57.8C561.718 60.4667 559.918 63.1667 558.452 65.9C557.452 67.7667 556.718 69.4667 556.252 71C555.852 72.5333 555.652 73.8667 555.652 75C555.652 77.6667 556.552 79 558.352 79ZM273.849 186.5C268.182 186.5 263.482 185.6 259.749 183.8C256.016 182.067 253.216 179.767 251.349 176.9C249.549 173.967 248.649 170.867 248.649 167.6C248.649 163.933 249.749 160.3 251.949 156.7C254.149 153.033 257.416 149.9 261.749 147.3C266.149 144.633 271.516 142.967 277.849 142.3C276.916 141.033 276.216 139.6 275.749 138C275.282 136.333 275.049 134.767 275.049 133.3C275.116 129.767 276.116 126.667 278.049 124C279.982 121.267 282.449 118.967 285.449 117.1C288.516 115.233 291.782 113.833 295.249 112.9C298.716 111.9 301.982 111.4 305.049 111.4C306.916 111.4 308.816 111.667 310.749 112.2C312.682 112.667 314.316 113.533 315.649 114.8C316.982 116.067 317.649 117.867 317.649 120.2C317.649 122.133 317.049 123.867 315.849 125.4C314.649 126.933 313.182 127.7 311.449 127.7C310.182 127.7 309.082 127.233 308.149 126.3C307.216 125.367 306.749 124.3 306.749 123.1C306.749 121.7 307.182 120.567 308.049 119.7C308.982 118.767 310.116 118.3 311.449 118.3C312.049 118.3 312.716 118.5 313.449 118.9C314.249 119.3 314.749 119.7 314.949 120.1C315.016 119.833 315.049 119.467 315.049 119C315.049 117.2 314.316 115.933 312.849 115.2C311.382 114.467 309.816 114.1 308.149 114.1C305.482 114.1 302.382 114.767 298.849 116.1C295.316 117.367 291.882 119.467 288.549 122.4C287.349 123.467 286.116 124.867 284.849 126.6C283.582 128.333 282.516 130.2 281.649 132.2C280.782 134.133 280.349 136.1 280.349 138.1C280.349 139.633 280.616 140.967 281.149 142.1C282.149 142.1 283.282 142.067 284.549 142C285.882 141.867 287.249 141.8 288.649 141.8C290.382 141.8 291.749 142.167 292.749 142.9C293.749 143.633 294.249 144.467 294.249 145.4C294.249 146.067 293.849 146.7 293.049 147.3C292.249 147.9 290.982 148.2 289.249 148.2C287.049 148.2 285.049 147.733 283.249 146.8C281.516 145.8 280.149 144.8 279.149 143.8C274.749 144.4 271.016 146.033 267.949 148.7C264.882 151.367 262.549 154.533 260.949 158.2C259.349 161.8 258.549 165.4 258.549 169C258.549 171.867 259.082 174.533 260.149 177C261.282 179.467 262.982 181.433 265.249 182.9C267.516 184.433 270.382 185.2 273.849 185.2C277.449 185.2 280.716 184.533 283.649 183.2C286.649 181.933 289.216 180.267 291.349 178.2C293.482 176.133 295.116 173.967 296.249 171.7C297.449 169.367 298.049 167.2 298.049 165.2C298.049 163.467 297.416 162.033 296.149 160.9C294.949 159.7 293.349 158.833 291.349 158.3C289.349 157.7 287.216 157.4 284.949 157.4C282.616 157.4 280.282 157.733 277.949 158.4C275.682 159 273.749 159.967 272.149 161.3C270.549 162.567 269.582 164.2 269.249 166.2C269.249 166.333 269.216 166.5 269.149 166.7C269.149 166.833 269.149 166.967 269.149 167.1C269.149 168.567 269.682 170.033 270.749 171.5C271.882 172.9 273.616 174.2 275.949 175.4C276.549 175.667 276.849 176.167 276.849 176.9C276.849 177.633 276.516 177.833 275.849 177.5C272.182 175.567 269.482 173.467 267.749 171.2C266.082 168.867 265.249 166.667 265.249 164.6C265.249 161.6 266.849 159.033 270.049 156.9C273.316 154.7 277.949 153.6 283.949 153.6H301.649C302.716 153.6 304.282 153.367 306.349 152.9C308.482 152.433 310.649 151.767 312.849 150.9C315.049 149.967 316.916 148.9 318.449 147.7C320.049 146.433 320.849 145 320.849 143.4C320.849 142.533 320.549 141.6 319.949 140.6C319.816 140.4 319.749 140.167 319.749 139.9C319.749 139.5 319.916 139.3 320.249 139.3C320.516 139.3 320.749 139.467 320.949 139.8C321.949 141.267 322.449 142.767 322.449 144.3C322.449 146.1 321.782 147.767 320.449 149.3C319.182 150.833 317.449 152.2 315.249 153.4C313.049 154.533 310.582 155.4 307.849 156C305.182 156.6 302.449 156.867 299.649 156.8C300.916 157.867 301.849 159.067 302.449 160.4C303.049 161.733 303.349 163.133 303.349 164.6C303.349 167.067 302.616 169.6 301.149 172.2C299.682 174.733 297.616 177.1 294.949 179.3C292.282 181.433 289.149 183.167 285.549 184.5C282.016 185.833 278.116 186.5 273.849 186.5ZM289.249 146.5C291.449 146.5 292.549 146.067 292.549 145.2C292.549 144.867 292.249 144.533 291.649 144.2C291.116 143.8 290.382 143.567 289.449 143.5C289.049 143.433 288.382 143.4 287.449 143.4C286.516 143.4 285.516 143.4 284.449 143.4C283.449 143.4 282.616 143.4 281.949 143.4C283.616 145.467 286.049 146.5 289.249 146.5ZM188.202 296.7C183.202 296.5 179.502 295.167 177.102 292.7C174.769 290.3 173.602 287.033 173.602 282.9C173.602 279.433 174.402 275.367 176.002 270.7C176.602 268.967 177.535 266.7 178.802 263.9C180.135 261.033 181.635 257.833 183.302 254.3C184.969 250.767 186.702 247.133 188.502 243.4C190.302 239.667 191.969 236.033 193.502 232.5C195.102 228.967 196.435 225.8 197.502 223C198.635 220.133 199.335 217.833 199.602 216.1C199.669 215.767 199.702 215.5 199.702 215.3C199.702 215.033 199.702 214.767 199.702 214.5C199.702 212.967 199.269 211.867 198.402 211.2C197.535 210.467 196.435 210.1 195.102 210.1C192.969 210.1 190.369 210.833 187.302 212.3C183.635 214.033 179.869 216.467 176.002 219.6C172.202 222.667 168.469 226.4 164.802 230.8C161.335 235 158.069 239.567 155.002 244.5C152.002 249.367 149.202 254.3 146.602 259.3C144.069 264.3 141.735 269.1 139.602 273.7C137.469 278.233 135.569 282.2 133.902 285.6C133.435 286.533 132.635 287.233 131.502 287.7C130.435 288.233 129.402 288.5 128.402 288.5C127.535 288.5 126.802 288.3 126.202 287.9C125.602 287.567 125.402 287.033 125.602 286.3C126.602 284.833 127.969 282.533 129.702 279.4C131.435 276.2 133.302 272.467 135.302 268.2C137.369 263.933 139.435 259.4 141.502 254.6C143.569 249.733 145.435 244.9 147.102 240.1C148.835 235.233 150.169 230.667 151.102 226.4C151.769 223.467 152.102 220.733 152.102 218.2C152.102 213.533 151.002 210.233 148.802 208.3C146.669 206.3 143.902 205.3 140.502 205.3C137.435 205.3 134.069 205.967 130.402 207.3C126.735 208.633 123.102 210.433 119.502 212.7C113.702 216.233 108.902 220.367 105.102 225.1C101.302 229.767 98.4688 234.533 96.6021 239.4C94.7354 244.2 93.8021 248.667 93.8021 252.8C93.8021 257.133 94.8354 260.733 96.9021 263.6C99.0354 266.467 102.169 267.9 106.302 267.9C109.835 267.9 113.069 267.167 116.002 265.7C119.002 264.233 121.569 262.333 123.702 260C125.902 257.667 127.602 255.233 128.802 252.7C130.002 250.167 130.602 247.833 130.602 245.7C130.602 243.767 130.069 242.2 129.002 241C127.935 239.733 126.202 239.1 123.802 239.1C123.535 239.1 123.269 239.133 123.002 239.2C122.735 239.2 122.435 239.2 122.102 239.2H121.802C121.202 239.2 120.902 239.033 120.902 238.7C120.902 238.1 121.235 237.733 121.902 237.6C123.635 237.2 125.135 237 126.402 237C129.135 237 131.135 237.733 132.402 239.2C133.735 240.667 134.402 242.533 134.402 244.8C134.402 247.2 133.702 249.867 132.302 252.8C130.969 255.667 129.035 258.4 126.502 261C124.035 263.533 121.069 265.633 117.602 267.3C114.135 268.967 110.302 269.8 106.102 269.8C102.902 269.8 99.9021 269.033 97.1021 267.5C94.3021 265.9 92.0354 263.633 90.3021 260.7C88.6354 257.767 87.8021 254.233 87.8021 250.1C87.8021 248.033 88.0354 245.867 88.5021 243.6C88.9688 241.267 89.7354 238.867 90.8021 236.4C92.4021 232.533 94.6354 228.867 97.5021 225.4C100.369 221.933 103.602 218.767 107.202 215.9C110.869 212.967 114.602 210.467 118.402 208.4C121.735 206.533 125.335 205.067 129.202 204C133.069 202.867 136.769 202.3 140.302 202.3C143.502 202.3 146.435 202.833 149.102 203.9C151.769 204.967 153.869 206.7 155.402 209.1C157.002 211.433 157.802 214.567 157.802 218.5C157.802 219.167 157.769 219.8 157.702 220.4C157.702 221 157.635 221.733 157.502 222.6C157.102 226.467 156.035 230.4 154.302 234.4C152.635 238.333 150.935 242.167 149.202 245.9C148.269 247.967 147.602 249.467 147.202 250.4C146.802 251.333 146.602 251.867 146.602 252C146.602 252.133 146.769 251.9 147.102 251.3C147.502 250.7 147.935 249.967 148.402 249.1C148.935 248.233 149.402 247.5 149.802 246.9C151.335 244.5 153.202 241.767 155.402 238.7C157.602 235.633 160.135 232.367 163.002 228.9C166.735 224.367 170.669 220.2 174.802 216.4C179.002 212.6 183.035 209.8 186.902 208C188.635 207.2 190.435 206.567 192.302 206.1C194.169 205.633 195.935 205.4 197.602 205.4C200.269 205.4 202.602 206.1 204.602 207.5C206.602 208.833 207.569 211.3 207.502 214.9C207.502 217.9 206.769 221.233 205.302 224.9C203.902 228.567 202.035 232.533 199.702 236.8C197.435 241.067 194.969 245.633 192.302 250.5C189.635 255.367 187.069 260.5 184.602 265.9C182.802 269.767 181.469 273.367 180.602 276.7C179.802 279.967 179.402 282.833 179.402 285.3C179.402 288.033 179.935 290.167 181.002 291.7C182.069 293.3 183.602 294.1 185.602 294.1C187.069 294.1 188.702 293.667 190.502 292.8C191.102 292.467 191.635 292.233 192.102 292.1C192.635 292.033 193.035 292 193.302 292C194.302 292 194.802 292.367 194.802 293.1C194.802 293.833 194.202 294.633 193.002 295.5C191.802 296.367 190.202 296.767 188.202 296.7ZM198.187 283.2C196.987 283.2 196.387 282.7 196.387 281.7C196.387 281.033 196.553 280.467 196.887 280C197.087 279.6 197.787 279.167 198.987 278.7C200.187 278.167 201.42 277.667 202.687 277.2C204.02 276.667 204.92 276.267 205.387 276C206.587 275.4 207.887 274.267 209.287 272.6C210.753 270.867 212.253 268.933 213.787 266.8C215.32 264.6 216.82 262.467 218.287 260.4C219.753 258.333 221.153 256.6 222.487 255.2C221.287 254.933 219.92 254.633 218.387 254.3C216.853 253.967 215.42 253.8 214.087 253.8C212.487 253.8 211.087 254 209.887 254.4C208.753 254.733 207.62 255.467 206.487 256.6C205.353 257.667 204.153 259.267 202.887 261.4C201.62 263.533 200.087 266.367 198.287 269.9C197.953 270.433 197.553 270.7 197.087 270.7C196.753 270.7 196.587 270.5 196.587 270.1C196.587 269.833 196.687 269.5 196.887 269.1C197.22 268.5 197.787 267.433 198.587 265.9C199.387 264.3 200.187 262.7 200.987 261.1C201.787 259.433 202.387 258.233 202.787 257.5C204.453 254.5 206.053 252.3 207.587 250.9C209.187 249.5 210.72 248.6 212.187 248.2C213.72 247.8 215.153 247.6 216.487 247.6C217.62 247.6 218.687 247.833 219.687 248.3C220.753 248.767 221.787 249.267 222.787 249.8C223.787 250.267 224.787 250.5 225.787 250.5C227.053 250.5 227.987 250.167 228.587 249.5C229.187 248.833 229.72 248.5 230.187 248.5C230.653 248.5 231.053 248.7 231.387 249.1C231.72 249.5 231.887 250 231.887 250.6C231.887 251.467 231.587 252.033 230.987 252.3C230.453 252.567 229.92 252.867 229.387 253.2C227.587 254.2 225.853 255.7 224.187 257.7C222.587 259.633 220.987 261.767 219.387 264.1C217.853 266.433 216.32 268.7 214.787 270.9C213.253 273.033 211.72 274.8 210.187 276.2C211.52 276.6 213.153 277.033 215.087 277.5C217.02 277.967 218.787 278.2 220.387 278.2C220.787 278.2 221.12 278.2 221.387 278.2C221.72 278.133 222.053 278.067 222.387 278C223.92 277.6 225.353 276.7 226.687 275.3C228.02 273.833 229.253 272.167 230.387 270.3C231.52 268.433 232.52 266.567 233.387 264.7C234.32 262.833 235.087 261.3 235.687 260.1C235.887 259.7 236.187 259.5 236.587 259.5C236.987 259.5 237.187 259.7 237.187 260.1C237.187 260.433 237.12 260.733 236.987 261C235.453 264.667 233.753 268.2 231.887 271.6C230.02 274.933 227.987 277.633 225.787 279.7C223.653 281.767 221.32 282.767 218.787 282.7C215.92 282.567 213.387 282.267 211.187 281.8C208.987 281.333 207.12 281.1 205.587 281.1C204.32 281.1 203.087 281.433 201.887 282.1C200.753 282.833 199.52 283.2 198.187 283.2ZM243.254 282.4C240.787 282.4 238.554 281.6 236.554 280C234.621 278.4 233.654 275.967 233.654 272.7C233.654 269.7 234.387 266.5 235.854 263.1C237.321 259.633 239.187 256.6 241.454 254C243.387 251.733 245.554 249.867 247.954 248.4C250.354 246.933 252.621 246.2 254.754 246.2C256.221 246.2 257.487 246.6 258.554 247.4C259.687 248.267 260.254 249.5 260.254 251.1C260.254 252.767 259.621 254.6 258.354 256.6C257.087 258.6 255.287 260.467 252.954 262.2C251.954 262.933 250.687 263.633 249.154 264.3C247.621 264.967 246.087 265.533 244.554 266C243.021 266.4 241.754 266.6 240.754 266.6C240.421 267.4 240.087 268.467 239.754 269.8C239.487 271.133 239.354 272.5 239.354 273.9C239.354 275.567 239.687 277.067 240.354 278.4C241.021 279.733 242.254 280.4 244.054 280.4C246.254 280.4 248.254 279.767 250.054 278.5C251.854 277.233 253.454 275.667 254.854 273.8C256.254 271.867 257.421 269.933 258.354 268C259.354 266.067 260.154 264.433 260.754 263.1C261.154 262.167 261.687 261.7 262.354 261.7C262.687 261.7 262.854 261.867 262.854 262.2C262.854 262.467 262.754 262.8 262.554 263.2C261.621 265.2 260.621 267.333 259.554 269.6C258.487 271.8 257.221 273.9 255.754 275.9C254.287 277.833 252.521 279.4 250.454 280.6C248.454 281.8 246.054 282.4 243.254 282.4ZM241.454 264.8C242.387 264.8 243.954 264.467 246.154 263.8C248.354 263.067 250.354 261.933 252.154 260.4C253.887 258.867 255.221 257.2 256.154 255.4C257.087 253.533 257.554 251.967 257.554 250.7C257.554 249.233 257.021 248.5 255.954 248.5C255.154 248.5 254.054 249.033 252.654 250.1C251.254 251.167 249.521 252.967 247.454 255.5C246.187 257.1 244.987 258.833 243.854 260.7C242.721 262.567 241.921 263.933 241.454 264.8ZM316.715 288.1C313.782 288.1 310.982 287.667 308.315 286.8C304.315 285.533 301.082 282.8 298.615 278.6C296.215 274.4 295.015 269.5 295.015 263.9C295.015 259.033 296.015 254 298.015 248.8C295.882 247.267 294.115 245.467 292.715 243.4C291.315 241.333 290.482 238.933 290.215 236.2C290.149 235.667 290.115 235.2 290.115 234.8C290.115 234.333 290.115 233.867 290.115 233.4C290.115 228.8 291.149 224.7 293.215 221.1C295.349 217.5 298.182 214.467 301.715 212C305.249 209.467 309.215 207.567 313.615 206.3C318.015 204.967 322.482 204.3 327.015 204.3C331.482 204.3 335.815 204.967 340.015 206.3C344.215 207.633 347.949 209.7 351.215 212.5C354.549 215.3 357.115 218.867 358.915 223.2C360.782 227.467 361.582 232.6 361.315 238.6C364.049 236.8 366.615 234.867 369.015 232.8C371.415 230.733 373.249 228.467 374.515 226C374.849 225.333 375.282 225 375.815 225C376.215 225 376.415 225.233 376.415 225.7C376.415 225.767 376.382 225.967 376.315 226.3C376.249 226.567 376.149 226.8 376.015 227C374.149 229.933 371.982 232.7 369.515 235.3C367.049 237.9 364.182 240.2 360.915 242.2C360.849 243.667 360.615 245.333 360.215 247.2C359.882 249 359.382 250.9 358.715 252.9C357.449 256.967 355.415 261.067 352.615 265.2C349.882 269.333 346.615 273.133 342.815 276.6C339.015 280.067 334.882 282.833 330.415 284.9C325.949 287.033 321.382 288.1 316.715 288.1ZM320.015 251C325.615 251 331.515 250.2 337.715 248.6C343.982 246.933 349.849 244.667 355.315 241.8C355.449 240.933 355.515 240.1 355.515 239.3C355.515 238.433 355.515 237.6 355.515 236.8C355.515 231.333 354.715 226.667 353.115 222.8C351.582 218.867 349.482 215.667 346.815 213.2C344.149 210.733 341.149 208.933 337.815 207.8C334.482 206.6 331.015 206 327.415 206C323.549 206 319.715 206.633 315.915 207.9C312.115 209.167 308.682 211 305.615 213.4C302.549 215.733 300.082 218.567 298.215 221.9C296.415 225.233 295.515 228.967 295.515 233.1C295.515 234.367 295.615 235.667 295.815 237C296.215 240.067 297.549 242.6 299.815 244.6C300.749 242.6 302.015 240.367 303.615 237.9C305.215 235.367 307.049 232.833 309.115 230.3C311.249 227.7 313.515 225.333 315.915 223.2C318.382 221.067 320.915 219.367 323.515 218.1C326.182 216.767 328.849 216.1 331.515 216.1C332.649 216.1 333.782 216.233 334.915 216.5C336.115 216.767 337.249 217.233 338.315 217.9C338.849 218.233 339.115 218.533 339.115 218.8C339.115 219 338.949 219.167 338.615 219.3C338.349 219.433 337.982 219.433 337.515 219.3C336.649 219.033 335.682 218.9 334.615 218.9C332.215 218.9 329.782 219.633 327.315 221.1C324.849 222.5 322.449 224.367 320.115 226.7C317.782 228.967 315.615 231.433 313.615 234.1C311.615 236.7 309.849 239.267 308.315 241.8C306.849 244.267 305.715 246.367 304.915 248.1C308.982 250.033 314.015 251 320.015 251ZM317.515 285.7C321.249 285.7 324.882 284.767 328.415 282.9C332.015 281.033 335.382 278.5 338.515 275.3C341.715 272.1 344.549 268.533 347.015 264.6C349.482 260.667 351.449 256.633 352.915 252.5C353.315 251.367 353.682 250.2 354.015 249C354.349 247.733 354.549 246.533 354.615 245.4C349.215 248.267 343.449 250.467 337.315 252C331.182 253.533 325.315 254.3 319.715 254.3C313.515 254.3 308.115 253.4 303.515 251.6C301.449 256.867 300.415 262.033 300.415 267.1C300.415 270.767 301.082 274.067 302.415 277C303.749 279.933 305.849 282.133 308.715 283.6C311.649 285 314.582 285.7 317.515 285.7ZM350.452 309.3C349.652 309.3 348.852 309.167 348.052 308.9C347.185 308.7 346.319 308.667 345.452 308.8C345.852 308.4 346.619 307.233 347.752 305.3C348.885 303.433 350.219 301.1 351.752 298.3C353.219 295.5 354.785 292.467 356.452 289.2C358.119 285.933 359.685 282.733 361.152 279.6C362.619 276.4 363.852 273.5 364.852 270.9C365.919 268.233 366.585 266.133 366.852 264.6C366.252 265.467 365.652 265.967 365.052 266.1C364.519 266.167 364.385 265.967 364.652 265.5C364.785 265.233 365.052 264.6 365.452 263.6C365.919 262.533 366.319 261.633 366.652 260.9C367.185 259.567 367.619 258.1 367.952 256.5C368.352 254.9 368.552 253.367 368.552 251.9C368.552 250.967 368.452 250.167 368.252 249.5C368.052 248.833 367.685 248.467 367.152 248.4C367.152 248.4 367.519 248.333 368.252 248.2C368.985 248.067 369.752 247.933 370.552 247.8C371.352 247.667 371.885 247.6 372.152 247.6C372.552 247.533 372.919 247.5 373.252 247.5C373.585 247.433 373.885 247.4 374.152 247.4C374.752 247.4 375.152 247.633 375.352 248.1C375.619 248.5 375.752 249.367 375.752 250.7C375.752 252.367 375.452 254.5 374.852 257.1C374.319 259.633 373.685 261.867 372.952 263.8C373.685 262.6 374.619 261.067 375.752 259.2C376.952 257.333 378.319 255.433 379.852 253.5C381.385 251.567 382.985 249.967 384.652 248.7C386.319 247.367 387.952 246.7 389.552 246.7C389.885 246.7 390.319 246.767 390.852 246.9C392.719 247.367 394.019 248.3 394.752 249.7C395.552 251.033 395.952 252.633 395.952 254.5C395.952 256.5 395.552 258.7 394.752 261.1C394.019 263.5 393.019 265.867 391.752 268.2C390.485 270.467 389.085 272.533 387.552 274.4C385.685 276.733 383.452 278.6 380.852 280C378.252 281.4 375.585 282.1 372.852 282.1C370.385 282.1 368.085 281.467 365.952 280.2L356.452 304.1C355.519 306.1 354.619 307.467 353.752 308.2C352.885 308.933 351.785 309.3 350.452 309.3ZM369.652 280C371.519 280 373.619 279.133 375.952 277.4C378.285 275.667 380.519 273.467 382.652 270.8C384.852 268.067 386.685 265.333 388.152 262.6C389.152 260.733 389.885 259.033 390.352 257.5C390.819 255.9 391.052 254.533 391.052 253.4C391.052 250.8 390.119 249.5 388.252 249.5C387.385 249.5 386.252 249.967 384.852 250.9C383.519 251.833 381.952 253.533 380.152 256C378.219 258.667 376.085 262.033 373.752 266.1C371.485 270.1 369.152 274.333 366.752 278.8C367.552 279.6 368.519 280 369.652 280ZM422.931 282.3C422.198 282.367 421.365 282.2 420.431 281.8C419.498 281.4 418.665 280.667 417.931 279.6C417.265 278.533 416.931 277.033 416.931 275.1C416.931 273.5 417.231 271.567 417.831 269.3C417.031 270.567 415.998 272.133 414.731 274C413.465 275.8 412.098 277.4 410.631 278.8C409.365 280 408.165 280.867 407.031 281.4C405.898 281.933 404.865 282.2 403.931 282.2C402.198 282.2 400.798 281.433 399.731 279.9C398.665 278.3 398.131 276.233 398.131 273.7C398.131 271.033 398.798 268 400.131 264.6C401.465 261.2 403.631 257.667 406.631 254C408.565 251.667 410.898 249.8 413.631 248.4C416.431 246.933 419.165 246.2 421.831 246.2C423.365 246.2 424.831 246.467 426.231 247C427.631 247.467 428.865 248.267 429.931 249.4C430.398 249.867 430.631 250.4 430.631 251C430.631 251.4 430.465 251.733 430.131 252C429.798 252.267 429.365 252.333 428.831 252.2C428.098 249.867 426.531 248.7 424.131 248.7C422.998 248.7 421.698 249.067 420.231 249.8C417.965 251 415.598 252.967 413.131 255.7C410.731 258.433 408.631 261.267 406.831 264.2C406.565 264.6 406.131 265.367 405.531 266.5C404.998 267.633 404.465 268.9 403.931 270.3C403.398 271.7 403.031 273.067 402.831 274.4C402.765 274.8 402.731 275.1 402.731 275.3C402.731 275.433 402.731 275.667 402.731 276C402.731 278.2 403.565 279.3 405.231 279.3C407.231 279.3 409.498 277.833 412.031 274.9C413.765 272.767 415.331 270.533 416.731 268.2C418.131 265.867 419.565 263.367 421.031 260.7C422.031 258.9 422.965 257.4 423.831 256.2C424.698 255 425.931 254.4 427.531 254.4C428.265 254.4 428.998 254.5 429.731 254.7C430.465 254.9 431.231 254.933 432.031 254.8C431.498 255.333 430.765 256.333 429.831 257.8C428.965 259.267 428.031 260.933 427.031 262.8C426.031 264.667 425.131 266.567 424.331 268.5C423.531 270.433 422.965 272.1 422.631 273.5C422.565 273.9 422.465 274.467 422.331 275.2C422.265 275.933 422.231 276.467 422.231 276.8C422.231 278.667 422.765 279.6 423.831 279.6C424.898 279.6 426.031 278.967 427.231 277.7C428.498 276.433 429.731 274.867 430.931 273C432.131 271.133 433.231 269.267 434.231 267.4C435.231 265.467 436.031 263.9 436.631 262.7C436.898 262.033 437.298 261.7 437.831 261.7C438.165 261.7 438.331 261.933 438.331 262.4C438.331 262.6 438.231 262.967 438.031 263.5C437.231 265.167 436.265 267.067 435.131 269.2C433.998 271.267 432.765 273.3 431.431 275.3C430.098 277.233 428.698 278.867 427.231 280.2C425.831 281.467 424.398 282.167 422.931 282.3ZM450.277 282.1C449.011 282.1 447.744 281.6 446.477 280.6C445.211 279.533 444.577 277.833 444.577 275.5C444.577 273.7 445.011 271.633 445.877 269.3C446.677 267.033 447.744 264.833 449.077 262.7C450.477 260.567 451.477 258.833 452.077 257.5C452.277 256.967 452.377 256.5 452.377 256.1C452.377 254.9 451.611 254.033 450.077 253.5C448.611 252.967 446.677 252.667 444.277 252.6L443.077 255.9C442.344 258.033 441.311 260.533 439.977 263.4C438.711 266.267 437.277 269.033 435.677 271.7C434.144 274.367 432.544 276.5 430.877 278.1C430.744 278.233 430.577 278.3 430.377 278.3C430.111 278.3 429.944 278.133 429.877 277.8C429.744 277.467 429.877 277.067 430.277 276.6C432.877 273.133 435.211 269.3 437.277 265.1C439.344 260.833 441.077 256.5 442.477 252.1C443.944 247.7 445.011 243.633 445.677 239.9C445.877 238.833 446.244 238.067 446.777 237.6C447.311 237.067 447.877 236.8 448.477 236.8C449.344 236.8 450.144 237.233 450.877 238.1C451.611 238.9 451.977 240.067 451.977 241.6C451.977 241.867 451.944 242.167 451.877 242.5C451.877 242.833 451.844 243.167 451.777 243.5C451.511 244.9 450.711 246.233 449.377 247.5C448.111 248.7 447.077 249.6 446.277 250.2C446.944 250.267 447.644 250.333 448.377 250.4C449.111 250.4 449.911 250.4 450.777 250.4C453.911 250.4 457.011 250.2 460.077 249.8C460.211 250.2 460.277 250.5 460.277 250.7C460.277 251.567 460.011 252.667 459.477 254C459.011 255.333 458.511 256.533 457.977 257.6C457.711 258.2 457.177 259.3 456.377 260.9C455.577 262.433 454.711 264.2 453.777 266.2C452.844 268.133 452.044 270.067 451.377 272C450.777 273.867 450.477 275.467 450.477 276.8C450.477 278.533 451.144 279.4 452.477 279.4C453.477 279.4 454.577 278.767 455.777 277.5C456.977 276.167 458.144 274.567 459.277 272.7C460.477 270.767 461.544 268.9 462.477 267.1C463.477 265.233 464.244 263.767 464.777 262.7C465.044 262.033 465.411 261.7 465.877 261.7C466.144 261.7 466.277 261.933 466.277 262.4C466.277 262.667 466.177 263.067 465.977 263.6C465.244 265.133 464.377 266.867 463.377 268.8C462.377 270.733 461.244 272.633 459.977 274.5C458.777 276.367 457.444 278 455.977 279.4C454.577 280.733 453.044 281.6 451.377 282C451.177 282.067 450.811 282.1 450.277 282.1ZM487.942 282.3C487.208 282.367 486.375 282.2 485.442 281.8C484.508 281.4 483.675 280.667 482.942 279.6C482.275 278.533 481.942 277.033 481.942 275.1C481.942 273.5 482.242 271.567 482.842 269.3C482.042 270.567 481.008 272.133 479.742 274C478.475 275.8 477.108 277.4 475.642 278.8C474.375 280 473.175 280.867 472.042 281.4C470.908 281.933 469.875 282.2 468.942 282.2C467.208 282.2 465.808 281.433 464.742 279.9C463.675 278.3 463.142 276.233 463.142 273.7C463.142 271.033 463.808 268 465.142 264.6C466.475 261.2 468.642 257.667 471.642 254C473.575 251.667 475.908 249.8 478.642 248.4C481.442 246.933 484.175 246.2 486.842 246.2C488.375 246.2 489.842 246.467 491.242 247C492.642 247.467 493.875 248.267 494.942 249.4C495.408 249.867 495.642 250.4 495.642 251C495.642 251.4 495.475 251.733 495.142 252C494.808 252.267 494.375 252.333 493.842 252.2C493.108 249.867 491.542 248.7 489.142 248.7C488.008 248.7 486.708 249.067 485.242 249.8C482.975 251 480.608 252.967 478.142 255.7C475.742 258.433 473.642 261.267 471.842 264.2C471.575 264.6 471.142 265.367 470.542 266.5C470.008 267.633 469.475 268.9 468.942 270.3C468.408 271.7 468.042 273.067 467.842 274.4C467.775 274.8 467.742 275.1 467.742 275.3C467.742 275.433 467.742 275.667 467.742 276C467.742 278.2 468.575 279.3 470.242 279.3C472.242 279.3 474.508 277.833 477.042 274.9C478.775 272.767 480.342 270.533 481.742 268.2C483.142 265.867 484.575 263.367 486.042 260.7C487.042 258.9 487.975 257.4 488.842 256.2C489.708 255 490.942 254.4 492.542 254.4C493.275 254.4 494.008 254.5 494.742 254.7C495.475 254.9 496.242 254.933 497.042 254.8C496.508 255.333 495.775 256.333 494.842 257.8C493.975 259.267 493.042 260.933 492.042 262.8C491.042 264.667 490.142 266.567 489.342 268.5C488.542 270.433 487.975 272.1 487.642 273.5C487.575 273.9 487.475 274.467 487.342 275.2C487.275 275.933 487.242 276.467 487.242 276.8C487.242 278.667 487.775 279.6 488.842 279.6C489.908 279.6 491.042 278.967 492.242 277.7C493.508 276.433 494.742 274.867 495.942 273C497.142 271.133 498.242 269.267 499.242 267.4C500.242 265.467 501.042 263.9 501.642 262.7C501.908 262.033 502.308 261.7 502.842 261.7C503.175 261.7 503.342 261.933 503.342 262.4C503.342 262.6 503.242 262.967 503.042 263.5C502.242 265.167 501.275 267.067 500.142 269.2C499.008 271.267 497.775 273.3 496.442 275.3C495.108 277.233 493.708 278.867 492.242 280.2C490.842 281.467 489.408 282.167 487.942 282.3Z" fill="#FCCA89"/>
</svg>
