<svg width="25" height="24" viewBox="0 0 25 24" fill="none" xmlns="http://www.w3.org/2000/svg">
<path d="M22.6406 0H7.64062C6.39797 0 5.39062 1.00734 5.39062 2.25V4.5H3.14062C1.89797 4.5 0.890625 5.50734 0.890625 6.75V21.75C0.890625 22.9927 1.89797 24 3.14062 24H18.1406C19.3833 24 20.3906 22.9927 20.3906 21.75V19.5H22.6406C23.8833 19.5 24.8906 18.4927 24.8906 17.25V2.25C24.8906 1.00734 23.8833 0 22.6406 0ZM17.8594 21.75H3.42188C3.34728 21.75 3.27575 21.7204 3.223 21.6676C3.17026 21.6149 3.14062 21.5433 3.14062 21.4688V7.03125C3.14062 6.95666 3.17026 6.88512 3.223 6.83238C3.27575 6.77963 3.34728 6.75 3.42188 6.75H5.39062V17.25C5.39062 18.4927 6.39797 19.5 7.64062 19.5H18.1406V21.4688C18.1406 21.5433 18.111 21.6149 18.0582 21.6676C18.0055 21.7204 17.934 21.75 17.8594 21.75ZM22.3594 17.25H7.92188C7.84728 17.25 7.77575 17.2204 7.723 17.1676C7.67026 17.1149 7.64062 17.0433 7.64062 16.9688V2.53125C7.64062 2.45666 7.67026 2.38512 7.723 2.33238C7.77575 2.27963 7.84728 2.25 7.92188 2.25H22.3594C22.434 2.25 22.5055 2.27963 22.5582 2.33238C22.611 2.38512 22.6406 2.45666 22.6406 2.53125V16.9688C22.6406 17.0433 22.611 17.1149 22.5582 17.1676C22.5055 17.2204 22.434 17.25 22.3594 17.25Z" fill="white" fill-opacity="0.9"/>
</svg>
